<mxfile host="www.draw.io" modified="2020-03-03T03:52:11.877Z" agent="Mozilla/5.0 (Macintosh; Intel Mac OS X 10_13_6) AppleWebKit/537.36 (KHTML, like Gecko) Chrome/80.0.3987.122 Safari/537.36" etag="Sa4mOLlVvbn3GpvezzKo" version="12.7.9" type="github">
  <diagram id="eBQEhU2m4NLdrxS08Ehv" name="第 1 页">
    <mxGraphModel dx="1285" dy="518" grid="0" gridSize="10" guides="1" tooltips="1" connect="1" arrows="1" fold="1" page="0" pageScale="1" pageWidth="827" pageHeight="1169" math="0" shadow="0">
      <root>
        <mxCell id="0" />
        <mxCell id="1" parent="0" />
        <mxCell id="ppvKtxG-0E5BuGfRRCOL-3" value="" style="edgeStyle=orthogonalEdgeStyle;rounded=0;orthogonalLoop=1;jettySize=auto;html=1;" parent="1" source="ppvKtxG-0E5BuGfRRCOL-1" target="ppvKtxG-0E5BuGfRRCOL-2" edge="1">
          <mxGeometry relative="1" as="geometry" />
        </mxCell>
        <mxCell id="ppvKtxG-0E5BuGfRRCOL-1" value="kubelet" style="rounded=0;whiteSpace=wrap;html=1;" parent="1" vertex="1">
          <mxGeometry x="20" y="210" width="120" height="60" as="geometry" />
        </mxCell>
        <mxCell id="ppvKtxG-0E5BuGfRRCOL-5" value="" style="edgeStyle=orthogonalEdgeStyle;rounded=0;orthogonalLoop=1;jettySize=auto;html=1;" parent="1" source="ppvKtxG-0E5BuGfRRCOL-2" target="ppvKtxG-0E5BuGfRRCOL-4" edge="1">
          <mxGeometry relative="1" as="geometry" />
        </mxCell>
        <mxCell id="ppvKtxG-0E5BuGfRRCOL-2" value="CRI(docker-shim)" style="rounded=0;whiteSpace=wrap;html=1;" parent="1" vertex="1">
          <mxGeometry x="220" y="210" width="120" height="60" as="geometry" />
        </mxCell>
        <mxCell id="ppvKtxG-0E5BuGfRRCOL-22" value="" style="edgeStyle=orthogonalEdgeStyle;rounded=0;orthogonalLoop=1;jettySize=auto;html=1;" parent="1" source="ppvKtxG-0E5BuGfRRCOL-4" target="ppvKtxG-0E5BuGfRRCOL-10" edge="1">
          <mxGeometry relative="1" as="geometry" />
        </mxCell>
        <mxCell id="ppvKtxG-0E5BuGfRRCOL-4" value="&lt;span style=&quot;font-size: 13.3333px&quot;&gt;CRI加载/etc/cni/net.d下的插件&lt;/span&gt;" style="rounded=0;whiteSpace=wrap;html=1;" parent="1" vertex="1">
          <mxGeometry x="420" y="210" width="120" height="60" as="geometry" />
        </mxCell>
        <mxCell id="ppvKtxG-0E5BuGfRRCOL-13" value="" style="edgeStyle=orthogonalEdgeStyle;rounded=0;orthogonalLoop=1;jettySize=auto;html=1;" parent="1" source="ppvKtxG-0E5BuGfRRCOL-10" target="ppvKtxG-0E5BuGfRRCOL-12" edge="1">
          <mxGeometry relative="1" as="geometry" />
        </mxCell>
        <mxCell id="ppvKtxG-0E5BuGfRRCOL-17" value="" style="edgeStyle=orthogonalEdgeStyle;rounded=0;orthogonalLoop=1;jettySize=auto;html=1;" parent="1" source="ppvKtxG-0E5BuGfRRCOL-10" target="ppvKtxG-0E5BuGfRRCOL-16" edge="1">
          <mxGeometry relative="1" as="geometry" />
        </mxCell>
        <mxCell id="75yFXMIhDSZuPl3ZcAFx-1" value="包括两部分" style="text;html=1;align=center;verticalAlign=middle;resizable=0;points=[];labelBackgroundColor=#ffffff;" vertex="1" connectable="0" parent="ppvKtxG-0E5BuGfRRCOL-17">
          <mxGeometry x="-0.8173" y="-1" relative="1" as="geometry">
            <mxPoint as="offset" />
          </mxGeometry>
        </mxCell>
        <mxCell id="ppvKtxG-0E5BuGfRRCOL-19" value="" style="edgeStyle=orthogonalEdgeStyle;rounded=0;orthogonalLoop=1;jettySize=auto;html=1;" parent="1" source="ppvKtxG-0E5BuGfRRCOL-10" target="ppvKtxG-0E5BuGfRRCOL-18" edge="1">
          <mxGeometry relative="1" as="geometry" />
        </mxCell>
        <mxCell id="ppvKtxG-0E5BuGfRRCOL-10" value="准备CNI插件参数" style="rounded=0;whiteSpace=wrap;html=1;" parent="1" vertex="1">
          <mxGeometry x="420" y="350" width="120" height="60" as="geometry" />
        </mxCell>
        <mxCell id="ppvKtxG-0E5BuGfRRCOL-21" value="" style="edgeStyle=orthogonalEdgeStyle;rounded=0;orthogonalLoop=1;jettySize=auto;html=1;" parent="1" source="ppvKtxG-0E5BuGfRRCOL-18" target="ppvKtxG-0E5BuGfRRCOL-20" edge="1">
          <mxGeometry relative="1" as="geometry" />
        </mxCell>
        <mxCell id="ppvKtxG-0E5BuGfRRCOL-18" value="传递给CNI插件" style="rounded=0;whiteSpace=wrap;html=1;" parent="1" vertex="1">
          <mxGeometry x="220" y="350" width="120" height="60" as="geometry" />
        </mxCell>
        <mxCell id="ppvKtxG-0E5BuGfRRCOL-20" value="执行将容器加入网络操作" style="rounded=0;whiteSpace=wrap;html=1;" parent="1" vertex="1">
          <mxGeometry x="20" y="350" width="120" height="60" as="geometry" />
        </mxCell>
        <mxCell id="ppvKtxG-0E5BuGfRRCOL-16" value="2. CRI从CNI配置中加载信息" style="rounded=0;whiteSpace=wrap;html=1;" parent="1" vertex="1">
          <mxGeometry x="540" y="490" width="120" height="60" as="geometry" />
        </mxCell>
        <mxCell id="ppvKtxG-0E5BuGfRRCOL-12" value="1. CRI设置的一组环境变量" style="rounded=0;whiteSpace=wrap;html=1;" parent="1" vertex="1">
          <mxGeometry x="310" y="490" width="120" height="60" as="geometry" />
        </mxCell>
        <mxCell id="75yFXMIhDSZuPl3ZcAFx-3" value="" style="edgeStyle=orthogonalEdgeStyle;rounded=0;orthogonalLoop=1;jettySize=auto;html=1;" edge="1" parent="1" source="75yFXMIhDSZuPl3ZcAFx-2" target="ppvKtxG-0E5BuGfRRCOL-1">
          <mxGeometry relative="1" as="geometry" />
        </mxCell>
        <mxCell id="75yFXMIhDSZuPl3ZcAFx-2" value="在宿主机安装网络方案本身" style="rounded=0;whiteSpace=wrap;html=1;" vertex="1" parent="1">
          <mxGeometry x="-170" y="210" width="120" height="60" as="geometry" />
        </mxCell>
      </root>
    </mxGraphModel>
  </diagram>
</mxfile>
